<svg xmlns="http://www.w3.org/2000/svg" viewBox="0 0 41 41" shape-rendering="crispEdges" class="qr"><rect width="41" height="41" fill="#fff6dc"/><g fill="#243244"><rect x="4" y="4" width="7" height="1"/><rect x="13" y="4" width="1" height="1"/><rect x="16" y="4" width="4" height="1"/><rect x="23" y="4" width="2" height="1"/><rect x="27" y="4" width="1" height="1"/><rect x="30" y="4" width="7" height="1"/><rect x="4" y="5" width="1" height="1"/><rect x="10" y="5" width="1" height="1"/><rect x="12" y="5" width="2" height="1"/><rect x="15" y="5" width="4" height="1"/><rect x="21" y="5" width="1" height="1"/><rect x="25" y="5" width="4" height="1"/><rect x="30" y="5" width="1" height="1"/><rect x="36" y="5" width="1" height="1"/><rect x="4" y="6" width="1" height="1"/><rect x="6" y="6" width="3" height="1"/><rect x="10" y="6" width="1" height="1"/><rect x="12" y="6" width="1" height="1"/><rect x="15" y="6" width="1" height="1"/><rect x="17" y="6" width="1" height="1"/><rect x="20" y="6" width="1" height="1"/><rect x="22" y="6" width="3" height="1"/><rect x="26" y="6" width="1" height="1"/><rect x="30" y="6" width="1" height="1"/><rect x="32" y="6" width="3" height="1"/><rect x="36" y="6" width="1" height="1"/><rect x="4" y="7" width="1" height="1"/><rect x="6" y="7" width="3" height="1"/><rect x="10" y="7" width="1" height="1"/><rect x="14" y="7" width="4" height="1"/><rect x="19" y="7" width="1" height="1"/><rect x="22" y="7" width="2" height="1"/><rect x="26" y="7" width="1" height="1"/><rect x="28" y="7" width="1" height="1"/><rect x="30" y="7" width="1" height="1"/><rect x="32" y="7" width="3" height="1"/><rect x="36" y="7" width="1" height="1"/><rect x="4" y="8" width="1" height="1"/><rect x="6" y="8" width="3" height="1"/><rect x="10" y="8" width="1" height="1"/><rect x="13" y="8" width="4" height="1"/><rect x="20" y="8" width="3" height="1"/><rect x="25" y="8" width="1" height="1"/><rect x="30" y="8" width="1" height="1"/><rect x="32" y="8" width="3" height="1"/><rect x="36" y="8" width="1" height="1"/><rect x="4" y="9" width="1" height="1"/><rect x="10" y="9" width="1" height="1"/><rect x="13" y="9" width="2" height="1"/><rect x="17" y="9" width="1" height="1"/><rect x="19" y="9" width="1" height="1"/><rect x="21" y="9" width="2" height="1"/><rect x="25" y="9" width="1" height="1"/><rect x="28" y="9" width="1" height="1"/><rect x="30" y="9" width="1" height="1"/><rect x="36" y="9" width="1" height="1"/><rect x="4" y="10" width="7" height="1"/><rect x="12" y="10" width="1" height="1"/><rect x="14" y="10" width="1" height="1"/><rect x="16" y="10" width="1" height="1"/><rect x="18" y="10" width="1" height="1"/><rect x="20" y="10" width="1" height="1"/><rect x="22" y="10" width="1" height="1"/><rect x="24" y="10" width="1" height="1"/><rect x="26" y="10" width="1" height="1"/><rect x="28" y="10" width="1" height="1"/><rect x="30" y="10" width="7" height="1"/><rect x="13" y="11" width="1" height="1"/><rect x="15" y="11" width="1" height="1"/><rect x="19" y="11" width="1" height="1"/><rect x="21" y="11" width="3" height="1"/><rect x="27" y="11" width="1" height="1"/><rect x="5" y="12" width="3" height="1"/><rect x="9" y="12" width="2" height="1"/><rect x="13" y="12" width="5" height="1"/><rect x="19" y="12" width="1" height="1"/><rect x="21" y="12" width="2" height="1"/><rect x="25" y="12" width="1" height="1"/><rect x="27" y="12" width="1" height="1"/><rect x="34" y="12" width="2" height="1"/><rect x="5" y="13" width="1" height="1"/><rect x="7" y="13" width="3" height="1"/><rect x="13" y="13" width="1" height="1"/><rect x="15" y="13" width="5" height="1"/><rect x="21" y="13" width="3" height="1"/><rect x="25" y="13" width="1" height="1"/><rect x="27" y="13" width="1" height="1"/><rect x="30" y="13" width="2" height="1"/><rect x="33" y="13" width="2" height="1"/><rect x="36" y="13" width="1" height="1"/><rect x="5" y="14" width="2" height="1"/><rect x="8" y="14" width="1" height="1"/><rect x="10" y="14" width="1" height="1"/><rect x="13" y="14" width="1" height="1"/><rect x="16" y="14" width="1" height="1"/><rect x="19" y="14" width="2" height="1"/><rect x="22" y="14" width="1" height="1"/><rect x="27" y="14" width="7" height="1"/><rect x="35" y="14" width="2" height="1"/><rect x="4" y="15" width="1" height="1"/><rect x="6" y="15" width="1" height="1"/><rect x="8" y="15" width="2" height="1"/><rect x="11" y="15" width="1" height="1"/><rect x="14" y="15" width="1" height="1"/><rect x="19" y="15" width="1" height="1"/><rect x="21" y="15" width="1" height="1"/><rect x="23" y="15" width="1" height="1"/><rect x="28" y="15" width="1" height="1"/><rect x="31" y="15" width="1" height="1"/><rect x="33" y="15" width="1" height="1"/><rect x="35" y="15" width="1" height="1"/><rect x="5" y="16" width="1" height="1"/><rect x="8" y="16" width="3" height="1"/><rect x="12" y="16" width="3" height="1"/><rect x="18" y="16" width="1" height="1"/><rect x="20" y="16" width="1" height="1"/><rect x="23" y="16" width="2" height="1"/><rect x="26" y="16" width="2" height="1"/><rect x="29" y="16" width="1" height="1"/><rect x="31" y="16" width="3" height="1"/><rect x="35" y="16" width="1" height="1"/><rect x="4" y="17" width="3" height="1"/><rect x="8" y="17" width="2" height="1"/><rect x="17" y="17" width="1" height="1"/><rect x="19" y="17" width="1" height="1"/><rect x="21" y="17" width="1" height="1"/><rect x="24" y="17" width="1" height="1"/><rect x="26" y="17" width="1" height="1"/><rect x="28" y="17" width="2" height="1"/><rect x="31" y="17" width="1" height="1"/><rect x="33" y="17" width="3" height="1"/><rect x="5" y="18" width="2" height="1"/><rect x="8" y="18" width="1" height="1"/><rect x="10" y="18" width="1" height="1"/><rect x="15" y="18" width="6" height="1"/><rect x="23" y="18" width="2" height="1"/><rect x="30" y="18" width="1" height="1"/><rect x="33" y="18" width="1" height="1"/><rect x="5" y="19" width="5" height="1"/><rect x="11" y="19" width="1" height="1"/><rect x="13" y="19" width="1" height="1"/><rect x="15" y="19" width="1" height="1"/><rect x="19" y="19" width="2" height="1"/><rect x="25" y="19" width="1" height="1"/><rect x="27" y="19" width="1" height="1"/><rect x="29" y="19" width="2" height="1"/><rect x="32" y="19" width="3" height="1"/><rect x="4" y="20" width="3" height="1"/><rect x="10" y="20" width="1" height="1"/><rect x="12" y="20" width="1" height="1"/><rect x="14" y="20" width="3" height="1"/><rect x="18" y="20" width="1" height="1"/><rect x="21" y="20" width="1" height="1"/><rect x="24" y="20" width="2" height="1"/><rect x="27" y="20" width="1" height="1"/><rect x="29" y="20" width="2" height="1"/><rect x="32" y="20" width="3" height="1"/><rect x="4" y="21" width="1" height="1"/><rect x="8" y="21" width="2" height="1"/><rect x="11" y="21" width="2" height="1"/><rect x="14" y="21" width="1" height="1"/><rect x="17" y="21" width="1" height="1"/><rect x="19" y="21" width="2" height="1"/><rect x="24" y="21" width="1" height="1"/><rect x="26" y="21" width="2" height="1"/><rect x="29" y="21" width="2" height="1"/><rect x="32" y="21" width="2" height="1"/><rect x="35" y="21" width="2" height="1"/><rect x="6" y="22" width="2" height="1"/><rect x="9" y="22" width="2" height="1"/><rect x="12" y="22" width="1" height="1"/><rect x="14" y="22" width="5" height="1"/><rect x="20" y="22" width="1" height="1"/><rect x="22" y="22" width="1" height="1"/><rect x="25" y="22" width="1" height="1"/><rect x="29" y="22" width="1" height="1"/><rect x="31" y="22" width="2" height="1"/><rect x="34" y="22" width="2" height="1"/><rect x="5" y="23" width="4" height="1"/><rect x="11" y="23" width="2" height="1"/><rect x="18" y="23" width="2" height="1"/><rect x="23" y="23" width="2" height="1"/><rect x="28" y="23" width="1" height="1"/><rect x="30" y="23" width="1" height="1"/><rect x="32" y="23" width="1" height="1"/><rect x="36" y="23" width="1" height="1"/><rect x="4" y="24" width="1" height="1"/><rect x="7" y="24" width="1" height="1"/><rect x="10" y="24" width="1" height="1"/><rect x="17" y="24" width="1" height="1"/><rect x="19" y="24" width="2" height="1"/><rect x="22" y="24" width="2" height="1"/><rect x="25" y="24" width="1" height="1"/><rect x="27" y="24" width="1" height="1"/><rect x="33" y="24" width="2" height="1"/><rect x="4" y="25" width="1" height="1"/><rect x="6" y="25" width="1" height="1"/><rect x="8" y="25" width="2" height="1"/><rect x="12" y="25" width="1" height="1"/><rect x="14" y="25" width="1" height="1"/><rect x="17" y="25" width="2" height="1"/><rect x="21" y="25" width="1" height="1"/><rect x="24" y="25" width="1" height="1"/><rect x="26" y="25" width="2" height="1"/><rect x="30" y="25" width="1" height="1"/><rect x="33" y="25" width="1" height="1"/><rect x="36" y="25" width="1" height="1"/><rect x="7" y="26" width="4" height="1"/><rect x="14" y="26" width="2" height="1"/><rect x="17" y="26" width="2" height="1"/><rect x="21" y="26" width="1" height="1"/><rect x="23" y="26" width="2" height="1"/><rect x="26" y="26" width="4" height="1"/><rect x="32" y="26" width="5" height="1"/><rect x="5" y="27" width="1" height="1"/><rect x="7" y="27" width="1" height="1"/><rect x="9" y="27" width="1" height="1"/><rect x="11" y="27" width="1" height="1"/><rect x="14" y="27" width="3" height="1"/><rect x="18" y="27" width="1" height="1"/><rect x="21" y="27" width="1" height="1"/><rect x="24" y="27" width="1" height="1"/><rect x="30" y="27" width="2" height="1"/><rect x="33" y="27" width="1" height="1"/><rect x="35" y="27" width="1" height="1"/><rect x="4" y="28" width="1" height="1"/><rect x="8" y="28" width="3" height="1"/><rect x="12" y="28" width="4" height="1"/><rect x="17" y="28" width="3" height="1"/><rect x="21" y="28" width="1" height="1"/><rect x="23" y="28" width="2" height="1"/><rect x="26" y="28" width="7" height="1"/><rect x="36" y="28" width="1" height="1"/><rect x="12" y="29" width="1" height="1"/><rect x="16" y="29" width="3" height="1"/><rect x="20" y="29" width="1" height="1"/><rect x="22" y="29" width="2" height="1"/><rect x="27" y="29" width="2" height="1"/><rect x="32" y="29" width="2" height="1"/><rect x="4" y="30" width="7" height="1"/><rect x="16" y="30" width="2" height="1"/><rect x="21" y="30" width="4" height="1"/><rect x="26" y="30" width="3" height="1"/><rect x="30" y="30" width="1" height="1"/><rect x="32" y="30" width="1" height="1"/><rect x="4" y="31" width="1" height="1"/><rect x="10" y="31" width="1" height="1"/><rect x="12" y="31" width="1" height="1"/><rect x="16" y="31" width="1" height="1"/><rect x="18" y="31" width="1" height="1"/><rect x="20" y="31" width="3" height="1"/><rect x="25" y="31" width="1" height="1"/><rect x="27" y="31" width="2" height="1"/><rect x="32" y="31" width="4" height="1"/><rect x="4" y="32" width="1" height="1"/><rect x="6" y="32" width="3" height="1"/><rect x="10" y="32" width="1" height="1"/><rect x="17" y="32" width="3" height="1"/><rect x="24" y="32" width="1" height="1"/><rect x="27" y="32" width="6" height="1"/><rect x="34" y="32" width="3" height="1"/><rect x="4" y="33" width="1" height="1"/><rect x="6" y="33" width="3" height="1"/><rect x="10" y="33" width="1" height="1"/><rect x="12" y="33" width="1" height="1"/><rect x="15" y="33" width="1" height="1"/><rect x="20" y="33" width="1" height="1"/><rect x="23" y="33" width="1" height="1"/><rect x="25" y="33" width="2" height="1"/><rect x="31" y="33" width="1" height="1"/><rect x="33" y="33" width="1" height="1"/><rect x="35" y="33" width="2" height="1"/><rect x="4" y="34" width="1" height="1"/><rect x="6" y="34" width="3" height="1"/><rect x="10" y="34" width="1" height="1"/><rect x="12" y="34" width="2" height="1"/><rect x="15" y="34" width="1" height="1"/><rect x="17" y="34" width="3" height="1"/><rect x="22" y="34" width="1" height="1"/><rect x="25" y="34" width="7" height="1"/><rect x="33" y="34" width="1" height="1"/><rect x="4" y="35" width="1" height="1"/><rect x="10" y="35" width="1" height="1"/><rect x="12" y="35" width="2" height="1"/><rect x="19" y="35" width="1" height="1"/><rect x="21" y="35" width="1" height="1"/><rect x="24" y="35" width="1" height="1"/><rect x="26" y="35" width="4" height="1"/><rect x="31" y="35" width="3" height="1"/><rect x="36" y="35" width="1" height="1"/><rect x="4" y="36" width="7" height="1"/><rect x="13" y="36" width="1" height="1"/><rect x="15" y="36" width="1" height="1"/><rect x="17" y="36" width="2" height="1"/><rect x="21" y="36" width="3" height="1"/><rect x="25" y="36" width="1" height="1"/><rect x="27" y="36" width="1" height="1"/><rect x="29" y="36" width="1" height="1"/><rect x="32" y="36" width="1" height="1"/><rect x="34" y="36" width="1" height="1"/></g></svg>